<mxfile host="app.diagrams.net" modified="2023-12-04T16:50:49.861Z" agent="Mozilla/5.0 (Windows NT 10.0; Win64; x64) AppleWebKit/537.36 (KHTML, like Gecko) Chrome/119.0.0.0 Safari/537.36" etag="0uDOv95gVbk59ZBtyQyC" version="22.1.5" type="github">
  <diagram name="Page-1" id="WVjAArECR-r44n3g0cuV">
    <mxGraphModel dx="1194" dy="750" grid="1" gridSize="10" guides="1" tooltips="1" connect="1" arrows="1" fold="1" page="1" pageScale="1" pageWidth="850" pageHeight="1100" math="0" shadow="1">
      <root>
        <mxCell id="0" />
        <mxCell id="1" parent="0" />
        <mxCell id="Kcn1vtvd_Udo2UhyRpVJ-1" value="SonarQube" style="shape=hexagon;perimeter=hexagonPerimeter2;whiteSpace=wrap;html=1;fixedSize=1;gradientColor=#E3E3E3;" parent="1" vertex="1">
          <mxGeometry x="350" y="200" width="120" height="80" as="geometry" />
        </mxCell>
        <mxCell id="Kcn1vtvd_Udo2UhyRpVJ-29" style="edgeStyle=orthogonalEdgeStyle;rounded=0;orthogonalLoop=1;jettySize=auto;html=1;entryX=1;entryY=0.5;entryDx=0;entryDy=0;" parent="1" source="Kcn1vtvd_Udo2UhyRpVJ-7" target="Kcn1vtvd_Udo2UhyRpVJ-1" edge="1">
          <mxGeometry relative="1" as="geometry">
            <Array as="points">
              <mxPoint x="560" y="150" />
              <mxPoint x="560" y="240" />
            </Array>
          </mxGeometry>
        </mxCell>
        <mxCell id="Kcn1vtvd_Udo2UhyRpVJ-36" style="edgeStyle=orthogonalEdgeStyle;rounded=0;orthogonalLoop=1;jettySize=auto;html=1;exitX=0.75;exitY=0;exitDx=0;exitDy=0;entryX=0;entryY=0.5;entryDx=0;entryDy=0;" parent="1" source="Kcn1vtvd_Udo2UhyRpVJ-7" target="Kcn1vtvd_Udo2UhyRpVJ-37" edge="1">
          <mxGeometry relative="1" as="geometry">
            <mxPoint x="650" y="80" as="targetPoint" />
          </mxGeometry>
        </mxCell>
        <mxCell id="Kcn1vtvd_Udo2UhyRpVJ-7" value="Controller Script" style="rounded=1;whiteSpace=wrap;html=1;gradientColor=#E3E3E3;" parent="1" vertex="1">
          <mxGeometry x="340" y="120" width="120" height="60" as="geometry" />
        </mxCell>
        <mxCell id="Kcn1vtvd_Udo2UhyRpVJ-26" style="edgeStyle=orthogonalEdgeStyle;rounded=0;orthogonalLoop=1;jettySize=auto;html=1;entryX=0;entryY=0.5;entryDx=0;entryDy=0;" parent="1" source="Kcn1vtvd_Udo2UhyRpVJ-11" target="Kcn1vtvd_Udo2UhyRpVJ-7" edge="1">
          <mxGeometry relative="1" as="geometry">
            <Array as="points">
              <mxPoint x="290" y="150" />
            </Array>
          </mxGeometry>
        </mxCell>
        <mxCell id="1Vy3NjkEHELPdbjlYAzo-5" style="edgeStyle=orthogonalEdgeStyle;rounded=0;orthogonalLoop=1;jettySize=auto;html=1;entryX=0;entryY=0.5;entryDx=0;entryDy=0;" parent="1" source="Kcn1vtvd_Udo2UhyRpVJ-11" target="Kcn1vtvd_Udo2UhyRpVJ-1" edge="1">
          <mxGeometry relative="1" as="geometry" />
        </mxCell>
        <mxCell id="Kcn1vtvd_Udo2UhyRpVJ-11" value="CI/CD Pipeline" style="rounded=1;whiteSpace=wrap;html=1;gradientColor=#E3E3E3;" parent="1" vertex="1">
          <mxGeometry x="410" y="308" width="120" height="60" as="geometry" />
        </mxCell>
        <mxCell id="Kcn1vtvd_Udo2UhyRpVJ-34" style="edgeStyle=orthogonalEdgeStyle;rounded=0;orthogonalLoop=1;jettySize=auto;html=1;entryX=0.1;entryY=-0.067;entryDx=0;entryDy=0;entryPerimeter=0;" parent="1" source="Kcn1vtvd_Udo2UhyRpVJ-7" target="Kcn1vtvd_Udo2UhyRpVJ-7" edge="1">
          <mxGeometry relative="1" as="geometry">
            <Array as="points">
              <mxPoint x="400" y="70" />
              <mxPoint x="352" y="70" />
            </Array>
          </mxGeometry>
        </mxCell>
        <mxCell id="Kcn1vtvd_Udo2UhyRpVJ-37" value="GitLab Issue Tracking&amp;nbsp;" style="rounded=1;whiteSpace=wrap;html=1;gradientColor=#E3E3E3;" parent="1" vertex="1">
          <mxGeometry x="530" y="70" width="120" height="60" as="geometry" />
        </mxCell>
        <mxCell id="1Vy3NjkEHELPdbjlYAzo-1" style="edgeStyle=orthogonalEdgeStyle;rounded=0;orthogonalLoop=1;jettySize=auto;html=1;" parent="1" source="Kcn1vtvd_Udo2UhyRpVJ-39" edge="1">
          <mxGeometry relative="1" as="geometry">
            <mxPoint x="480" y="370" as="targetPoint" />
          </mxGeometry>
        </mxCell>
        <mxCell id="Kcn1vtvd_Udo2UhyRpVJ-39" value="Nightly Timer" style="rounded=1;whiteSpace=wrap;html=1;gradientColor=#E3E3E3;" parent="1" vertex="1">
          <mxGeometry x="340" y="450" width="120" height="60" as="geometry" />
        </mxCell>
        <mxCell id="1Vy3NjkEHELPdbjlYAzo-2" style="edgeStyle=orthogonalEdgeStyle;rounded=0;orthogonalLoop=1;jettySize=auto;html=1;entryX=0.6;entryY=1.033;entryDx=0;entryDy=0;entryPerimeter=0;" parent="1" source="Kcn1vtvd_Udo2UhyRpVJ-41" target="Kcn1vtvd_Udo2UhyRpVJ-11" edge="1">
          <mxGeometry relative="1" as="geometry">
            <Array as="points">
              <mxPoint x="560" y="400" />
              <mxPoint x="530" y="400" />
              <mxPoint x="530" y="370" />
            </Array>
          </mxGeometry>
        </mxCell>
        <mxCell id="Kcn1vtvd_Udo2UhyRpVJ-41" value="Developer Merge Request" style="rounded=1;whiteSpace=wrap;html=1;gradientColor=#E3E3E3;" parent="1" vertex="1">
          <mxGeometry x="500" y="450" width="120" height="60" as="geometry" />
        </mxCell>
        <mxCell id="1Vy3NjkEHELPdbjlYAzo-3" value="0" style="text;html=1;align=center;verticalAlign=middle;resizable=0;points=[];autosize=1;strokeColor=none;fillColor=none;" parent="1" vertex="1">
          <mxGeometry x="290" y="380" width="30" height="30" as="geometry" />
        </mxCell>
        <mxCell id="1Vy3NjkEHELPdbjlYAzo-4" value="2" style="text;html=1;align=center;verticalAlign=middle;resizable=0;points=[];autosize=1;strokeColor=none;fillColor=none;" parent="1" vertex="1">
          <mxGeometry x="260" y="240" width="30" height="30" as="geometry" />
        </mxCell>
        <mxCell id="1Vy3NjkEHELPdbjlYAzo-6" value="1" style="text;html=1;align=center;verticalAlign=middle;resizable=0;points=[];autosize=1;strokeColor=none;fillColor=none;" parent="1" vertex="1">
          <mxGeometry x="335" y="258" width="30" height="30" as="geometry" />
        </mxCell>
        <mxCell id="1Vy3NjkEHELPdbjlYAzo-7" value="3" style="text;html=1;align=center;verticalAlign=middle;resizable=0;points=[];autosize=1;strokeColor=none;fillColor=none;" parent="1" vertex="1">
          <mxGeometry x="535" y="188" width="30" height="30" as="geometry" />
        </mxCell>
        <mxCell id="1Vy3NjkEHELPdbjlYAzo-8" value="4" style="text;html=1;align=center;verticalAlign=middle;resizable=0;points=[];autosize=1;strokeColor=none;fillColor=none;" parent="1" vertex="1">
          <mxGeometry x="355" y="38" width="30" height="30" as="geometry" />
        </mxCell>
        <mxCell id="1Vy3NjkEHELPdbjlYAzo-9" value="5" style="text;html=1;align=center;verticalAlign=middle;resizable=0;points=[];autosize=1;strokeColor=none;fillColor=none;" parent="1" vertex="1">
          <mxGeometry x="455" y="68" width="30" height="30" as="geometry" />
        </mxCell>
      </root>
    </mxGraphModel>
  </diagram>
</mxfile>
